<svg width="20" height="20" viewBox="0 0 20 20" fill="none" xmlns="http://www.w3.org/2000/svg">
<rect width="20" height="20" rx="2" fill="#25060C"/>
<path d="M16.1037 6.35369L8.10372 14.3537C8.05729 14.4002 8.00214 14.4371 7.94144 14.4622C7.88074 14.4874 7.81568 14.5003 7.74997 14.5003C7.68427 14.5003 7.6192 14.4874 7.5585 14.4622C7.4978 14.4371 7.44266 14.4002 7.39622 14.3537L3.89622 10.8537C3.8024 10.7599 3.74969 10.6326 3.74969 10.4999C3.74969 10.3673 3.8024 10.24 3.89622 10.1462C3.99004 10.0524 4.11729 9.99966 4.24997 9.99966C4.38265 9.99966 4.5099 10.0524 4.60372 10.1462L7.74997 13.2931L15.3962 5.64619C15.49 5.55237 15.6173 5.49966 15.75 5.49966C15.8827 5.49966 16.0099 5.55237 16.1037 5.64619C16.1975 5.74001 16.2503 5.86726 16.2503 5.99994C16.2503 6.13262 16.1975 6.25987 16.1037 6.35369Z" fill="#F7F7F7"/>
</svg>
