<svg width="32" height="32" viewBox="0 0 32 32" fill="none" xmlns="http://www.w3.org/2000/svg">
<rect x="0.5" y="0.5" width="31" height="31" rx="15.5" fill="#F3F4F6"/>
<rect x="0.5" y="0.5" width="31" height="31" rx="15.5" stroke="#25060C"/>
<mask id="mask0_2024_353" style="mask-type:alpha" maskUnits="userSpaceOnUse" x="8" y="8" width="16" height="16">
<rect x="8" y="8" width="16" height="16" fill="#D9D9D9"/>
</mask>
<g mask="url(#mask0_2024_353)">
<path d="M21.3 22C19.9111 22 18.5389 21.6972 17.1833 21.0917C15.8278 20.4861 14.5944 19.6278 13.4833 18.5167C12.3722 17.4056 11.5139 16.1722 10.9083 14.8167C10.3028 13.4611 10 12.0889 10 10.7C10 10.5 10.0667 10.3333 10.2 10.2C10.3333 10.0667 10.5 10 10.7 10H13.4C13.5556 10 13.6944 10.0528 13.8167 10.1583C13.9389 10.2639 14.0111 10.3889 14.0333 10.5333L14.4667 12.8667C14.4889 13.0444 14.4833 13.1944 14.45 13.3167C14.4167 13.4389 14.3556 13.5444 14.2667 13.6333L12.65 15.2667C12.8722 15.6778 13.1361 16.075 13.4417 16.4583C13.7472 16.8417 14.0833 17.2111 14.45 17.5667C14.7944 17.9111 15.1556 18.2306 15.5333 18.525C15.9111 18.8194 16.3111 19.0889 16.7333 19.3333L18.3 17.7667C18.4 17.6667 18.5306 17.5917 18.6917 17.5417C18.8528 17.4917 19.0111 17.4778 19.1667 17.5L21.4667 17.9667C21.6222 18.0111 21.75 18.0917 21.85 18.2083C21.95 18.325 22 18.4556 22 18.6V21.3C22 21.5 21.9333 21.6667 21.8 21.8C21.6667 21.9333 21.5 22 21.3 22Z" fill="#1C1B1F"/>
</g>
</svg>
