<svg width="64" height="64" viewBox="0 0 64 64" fill="none" xmlns="http://www.w3.org/2000/svg">
<path d="M55.0673 39.6347C54.7821 39.4548 54.4561 39.35 54.1195 39.3299C53.783 39.3098 53.4468 39.3751 53.1423 39.5197C52.3802 39.8801 51.5393 40.042 50.6979 39.9903C49.8565 39.9386 49.0418 39.675 48.3296 39.224C47.6173 38.7729 47.0307 38.1492 46.6242 37.4106C46.2177 36.6721 46.0046 35.8427 46.0046 34.9997C46.0046 34.1567 46.2177 33.3274 46.6242 32.5888C47.0307 31.8503 47.6173 31.2265 48.3296 30.7755C49.0418 30.3245 49.8565 30.0608 50.6979 30.0091C51.5393 29.9574 52.3802 30.1193 53.1423 30.4797C53.4472 30.6244 53.7837 30.6896 54.1206 30.6692C54.4575 30.6488 54.7837 30.5435 55.0689 30.3631C55.3541 30.1827 55.5891 29.933 55.7518 29.6374C55.9146 29.3417 55.9999 29.0097 55.9998 28.6722V17.9997C55.9998 16.9389 55.5783 15.9214 54.8282 15.1713C54.078 14.4211 53.0606 13.9997 51.9998 13.9997H42.9448C42.982 13.6677 43.0003 13.3338 42.9998 12.9997C42.9979 11.7705 42.7451 10.5547 42.2567 9.42664C41.7684 8.29862 41.0548 7.28221 40.1598 6.43972C38.9204 5.27575 37.3767 4.48664 35.7075 4.16377C34.0382 3.8409 32.3116 3.99748 30.7276 4.61537C29.1436 5.23326 27.7671 6.28719 26.7574 7.65512C25.7476 9.02305 25.146 10.649 25.0223 12.3447C24.9838 12.8963 24.9956 13.4502 25.0573 13.9997H15.9998C14.9389 13.9997 13.9215 14.4211 13.1713 15.1713C12.4212 15.9214 11.9998 16.9389 11.9998 17.9997V26.0547C11.6677 26.0175 11.3339 25.9991 10.9998 25.9997C9.77059 26.0017 8.55476 26.2546 7.42676 26.743C6.29876 27.2313 5.28234 27.9448 4.43975 28.8397C3.59113 29.7361 2.93768 30.7989 2.5207 31.9607C2.10373 33.1225 1.9323 34.3582 2.01725 35.5897C2.16057 37.7582 3.08195 39.8019 4.61193 41.3453C6.14192 42.8886 8.17765 43.8276 10.3448 43.9897C10.8963 44.0294 11.4504 44.0177 11.9998 43.9547V51.9997C11.9998 53.0606 12.4212 54.078 13.1713 54.8281C13.9215 55.5783 14.9389 55.9997 15.9998 55.9997H51.9998C53.0606 55.9997 54.078 55.5783 54.8282 54.8281C55.5783 54.078 55.9998 53.0606 55.9998 51.9997V41.3272C56 40.9893 55.9145 40.6568 55.7515 40.3609C55.5884 40.0649 55.353 39.8151 55.0673 39.6347ZM51.9998 51.9997H15.9998V41.3272C15.9999 40.9897 15.9146 40.6577 15.7518 40.362C15.5891 40.0664 15.3541 39.8167 15.0689 39.6363C14.7837 39.4559 14.4575 39.3506 14.1206 39.3302C13.7837 39.3098 13.4472 39.375 13.1423 39.5197C12.3802 39.8801 11.5393 40.042 10.6979 39.9903C9.85647 39.9386 9.04177 39.675 8.32955 39.224C7.61733 38.7729 7.03071 38.1492 6.62423 37.4106C6.21774 36.6721 6.00459 35.8427 6.00459 34.9997C6.00459 34.1567 6.21774 33.3274 6.62423 32.5888C7.03071 31.8503 7.61733 31.2265 8.32955 30.7755C9.04177 30.3245 9.85647 30.0608 10.6979 30.0091C11.5393 29.9574 12.3802 30.1193 13.1423 30.4797C13.4472 30.6244 13.7837 30.6896 14.1206 30.6692C14.4575 30.6488 14.7837 30.5435 15.0689 30.3631C15.3541 30.1827 15.5891 29.933 15.7518 29.6374C15.9146 29.3417 15.9999 29.0097 15.9998 28.6722V17.9997H27.6723C28.0097 17.9998 28.3418 17.9145 28.6374 17.7518C28.9331 17.589 29.1827 17.3541 29.3631 17.0689C29.5436 16.7837 29.6489 16.4574 29.6693 16.1205C29.6896 15.7837 29.6245 15.4471 29.4798 15.1422C29.1193 14.3801 28.9575 13.5393 29.0092 12.6979C29.0609 11.8564 29.3245 11.0417 29.7755 10.3295C30.2265 9.6173 30.8503 9.03068 31.5889 8.62419C32.3274 8.21771 33.1567 8.00456 33.9998 8.00456C34.8428 8.00456 35.6721 8.21771 36.4106 8.62419C37.1492 9.03068 37.773 9.6173 38.224 10.3295C38.675 11.0417 38.9386 11.8564 38.9903 12.6979C39.0421 13.5393 38.8802 14.3801 38.5198 15.1422C38.3751 15.4471 38.3099 15.7837 38.3303 16.1205C38.3506 16.4574 38.4559 16.7837 38.6364 17.0689C38.8168 17.3541 39.0664 17.589 39.3621 17.7518C39.6577 17.9145 39.9898 17.9998 40.3273 17.9997H51.9998V26.0572C51.4504 25.9943 50.8963 25.9826 50.3448 26.0222C48.017 26.187 45.8443 27.2495 44.285 28.9856C42.7256 30.7216 41.9015 32.9954 41.9864 35.3274C42.0714 37.6594 43.0588 39.8673 44.7404 41.4852C46.422 43.1032 48.6662 44.0047 50.9998 43.9997C51.3339 44.0003 51.6677 43.9819 51.9998 43.9447V51.9997Z" fill="white"/>
</svg>
