<svg width="64" height="64" viewBox="0 0 64 64" fill="none" xmlns="http://www.w3.org/2000/svg">
<path d="M49.3934 32.265L36.4984 27.5L31.7484 14.595C31.4672 13.8308 30.9582 13.1713 30.2903 12.7055C29.6225 12.2396 28.8277 11.9898 28.0134 11.9898C27.1991 11.9898 26.4044 12.2396 25.7365 12.7055C25.0687 13.1713 24.5597 13.8308 24.2784 14.595L19.4984 27.5L6.59344 32.25C5.82927 32.5313 5.16976 33.0402 4.70391 33.7081C4.23806 34.376 3.98828 35.1707 3.98828 35.985C3.98828 36.7993 4.23806 37.594 4.70391 38.2619C5.16976 38.9298 5.82927 39.4387 6.59344 39.72L19.4984 44.5L24.2484 57.405C24.5297 58.1692 25.0387 58.8287 25.7065 59.2945C26.3744 59.7604 27.1691 60.0102 27.9834 60.0102C28.7978 60.0102 29.5925 59.7604 30.2603 59.2945C30.9282 58.8287 31.4372 58.1692 31.7184 57.405L36.4984 44.5L49.4034 39.75C50.1676 39.4687 50.8271 38.9598 51.293 38.2919C51.7588 37.624 52.0086 36.8293 52.0086 36.015C52.0086 35.2007 51.7588 34.406 51.293 33.7381C50.8271 33.0702 50.1676 32.5613 49.4034 32.28L49.3934 32.265ZM34.2484 41.055C33.977 41.1551 33.7304 41.3128 33.5258 41.5174C33.3213 41.722 33.1635 41.9685 33.0634 42.24L27.9984 55.9625L22.9434 42.25C22.8436 41.9757 22.6848 41.7265 22.4784 41.5201C22.2719 41.3136 22.0228 41.1549 21.7484 41.055L8.03594 36L21.7484 30.945C22.0228 30.8451 22.2719 30.6864 22.4784 30.4799C22.6848 30.2735 22.8436 30.0243 22.9434 29.75L27.9984 16.0375L33.0534 29.75C33.1535 30.0215 33.3113 30.268 33.5158 30.4726C33.7204 30.6772 33.967 30.8349 34.2384 30.935L47.9609 36L34.2484 41.055ZM35.9984 10C35.9984 9.46957 36.2092 8.96086 36.5842 8.58579C36.9593 8.21071 37.468 8 37.9984 8H41.9984V4C41.9984 3.46957 42.2092 2.96086 42.5842 2.58579C42.9593 2.21071 43.468 2 43.9984 2C44.5289 2 45.0376 2.21071 45.4127 2.58579C45.7877 2.96086 45.9984 3.46957 45.9984 4V8H49.9984C50.5289 8 51.0376 8.21071 51.4127 8.58579C51.7877 8.96086 51.9984 9.46957 51.9984 10C51.9984 10.5304 51.7877 11.0391 51.4127 11.4142C51.0376 11.7893 50.5289 12 49.9984 12H45.9984V16C45.9984 16.5304 45.7877 17.0391 45.4127 17.4142C45.0376 17.7893 44.5289 18 43.9984 18C43.468 18 42.9593 17.7893 42.5842 17.4142C42.2092 17.0391 41.9984 16.5304 41.9984 16V12H37.9984C37.468 12 36.9593 11.7893 36.5842 11.4142C36.2092 11.0391 35.9984 10.5304 35.9984 10ZM61.9984 22C61.9984 22.5304 61.7877 23.0391 61.4127 23.4142C61.0376 23.7893 60.5289 24 59.9984 24H57.9984V26C57.9984 26.5304 57.7877 27.0391 57.4127 27.4142C57.0376 27.7893 56.5289 28 55.9984 28C55.468 28 54.9593 27.7893 54.5842 27.4142C54.2092 27.0391 53.9984 26.5304 53.9984 26V24H51.9984C51.468 24 50.9593 23.7893 50.5842 23.4142C50.2092 23.0391 49.9984 22.5304 49.9984 22C49.9984 21.4696 50.2092 20.9609 50.5842 20.5858C50.9593 20.2107 51.468 20 51.9984 20H53.9984V18C53.9984 17.4696 54.2092 16.9609 54.5842 16.5858C54.9593 16.2107 55.468 16 55.9984 16C56.5289 16 57.0376 16.2107 57.4127 16.5858C57.7877 16.9609 57.9984 17.4696 57.9984 18V20H59.9984C60.5289 20 61.0376 20.2107 61.4127 20.5858C61.7877 20.9609 61.9984 21.4696 61.9984 22Z" fill="white"/>
</svg>
